<svg xmlns="http://www.w3.org/2000/svg" xml:space="preserve" viewBox="0 0 512 512"><path d="M451.952 468.32H60.048C27.024 468.32 0 441.296 0 408.272V103.728C0 70.704 27.024 43.68 60.048 43.68h391.896c33.032 0 60.056 27.024 60.056 60.048v304.544c0 33.024-27.024 60.048-60.048 60.048" style="fill:#e9edf1"/><path d="M512 138.184v-34.456c0-33.032-27.024-60.048-60.048-60.048H60.048C27.024 43.68 0 70.704 0 103.728v34.456z"/><circle cx="58.4" cy="90.928" r="13.424" style="fill:#fc6f58"/><circle cx="96.64" cy="90.928" r="13.424" style="fill:#49c3e8"/><circle cx="134.904" cy="90.928" r="13.424" style="fill:#ffd160"/><path d="M429.392 87.168h30.416v6.824h-30.416z" style="fill:#fff"/><path d="m450.872 111.08-5.144-4.48 13.648-15.672-13.648-15.672 5.144-4.48 17.576 20.152zm-71.608 1.216H208.336c-11.752 0-21.368-9.616-21.368-21.368s9.616-21.368 21.368-21.368h170.928c11.752 0 21.368 9.616 21.368 21.368s-9.616 21.368-21.368 21.368" style="fill:#fff"/><path d="m212.656 101.16-4.704-19.24h3.744l1.824 8.736c.48 2.344.936 4.8 1.256 6.704h.056c.32-2.024.856-4.304 1.4-6.736l2.08-8.704h3.68l1.92 8.856c.48 2.28.88 4.424 1.16 6.504h.064c.336-2.12.8-4.304 1.304-6.656l2-8.704h3.576l-5.176 19.24h-3.76l-2-9.056c-.496-2.184-.824-4.016-1.056-6.104h-.064c-.336 2.056-.704 3.92-1.28 6.104l-2.224 9.056zm25.056 0-4.704-19.24h3.744l1.824 8.736c.48 2.344.936 4.8 1.256 6.704h.056c.32-2.024.856-4.304 1.4-6.736l2.08-8.704h3.68l1.92 8.856c.48 2.28.88 4.424 1.16 6.504h.064c.336-2.12.8-4.304 1.304-6.656l2-8.704h3.576l-5.176 19.24h-3.76l-2-9.056c-.496-2.184-.824-4.016-1.056-6.104h-.064c-.336 2.056-.704 3.92-1.28 6.104l-2.224 9.056zm25.056 0-4.704-19.24h3.744l1.824 8.736c.48 2.344.936 4.8 1.256 6.704h.056c.32-2.024.856-4.304 1.4-6.736l2.08-8.704h3.68l1.92 8.856c.48 2.28.88 4.424 1.16 6.504h.064c.336-2.12.8-4.304 1.304-6.656l2-8.704h3.576l-5.176 19.24h-3.76l-2-9.056c-.496-2.184-.824-4.016-1.056-6.104h-.064c-.336 2.056-.704 3.92-1.28 6.104l-2.224 9.056zm19.296-1.952c0-1.304.92-2.256 2.176-2.256 1.28 0 2.176.92 2.176 2.256 0 1.296-.864 2.264-2.176 2.264-1.28.008-2.176-.968-2.176-2.264"/><path d="m67.408 301.424 128.504-59.704v28.376l-97.184 42.568v.536l97.184 42.568v28.376L67.408 324.456zm148.352 93.44 57.296-194.104h27.04L242.8 394.864zm228.384-69.616L315.64 384.152v-28.376l99.328-42.568v-.536l-99.328-42.568v-28.376l128.504 58.904z" style="fill:#32bea6"/></svg>